<?xml version="1.0" encoding="UTF-8"?> <!-- Generator: Adobe Illustrator 19.1.0, SVG Export Plug-In . SVG Version: 6.00 Build 0) --> <svg xmlns="http://www.w3.org/2000/svg" xmlns:xlink="http://www.w3.org/1999/xlink" id="Calque_1" x="0px" y="0px" width="25px" height="25.1px" viewBox="0 0 25 25.1" style="enable-background:new 0 0 25 25.1;" xml:space="preserve"> <style type="text/css"> .st0{fill:#3C5999;} </style> <g> <g> <path class="st0" d="M18.1,0H6.9C3.1,0,0,3.1,0,6.9v11.2C0,21.9,3.1,25,6.9,25h4.4v-8.3H8.9c-0.2,0-0.4-0.2-0.4-0.4v-3 c0-0.2,0.2-0.4,0.4-0.4h2.4v-2c0-2.7,1.7-4.4,4.4-4.4l2.4,0c0.2,0,0.4,0.2,0.4,0.4v2.7c0,0.2-0.2,0.4-0.4,0.4l-1.6,0 c-1.1,0-1.3,0.4-1.3,1.3V13H18c0.1,0,0.2,0,0.3,0.1c0.1,0.1,0.1,0.2,0.1,0.3l0,3c0,0.2-0.2,0.4-0.4,0.4h-2.8V25h2.9 c3.8,0,6.9-3.1,6.9-6.9V6.9C25,3.1,21.9,0,18.1,0z"></path> </g> </g> </svg> 