<?xml version="1.0" encoding="UTF-8"?> <!-- Generator: Adobe Illustrator 19.1.0, SVG Export Plug-In . SVG Version: 6.00 Build 0) --> <svg xmlns="http://www.w3.org/2000/svg" xmlns:xlink="http://www.w3.org/1999/xlink" id="Calque_1" x="0px" y="0px" width="25px" height="25px" viewBox="0 0 25 25" style="enable-background:new 0 0 25 25;" xml:space="preserve"> <style type="text/css"> .st0{fill:url(#SVGID_1_);} </style> <g> <g> <linearGradient id="SVGID_1_" gradientUnits="userSpaceOnUse" x1="2.0229" y1="22.9762" x2="22.9761" y2="2.023"> <stop offset="0.1" style="stop-color:#F7AA49"></stop> <stop offset="0.33" style="stop-color:#E94D4B"></stop> <stop offset="0.66" style="stop-color:#764594"></stop> <stop offset="0.9" style="stop-color:#4A60AA"></stop> </linearGradient> <path class="st0" d="M18.1,0H6.9C3.1,0,0,3.1,0,6.9v11.2C0,21.9,3.1,25,6.9,25h11.2c3.8,0,6.9-3.1,6.9-6.9V6.9 C25,3.1,21.9,0,18.1,0z M12.5,18.9c-3.6,0-6.4-2.9-6.4-6.4c0-3.6,2.9-6.4,6.4-6.4c3.6,0,6.4,2.9,6.4,6.4 C18.9,16.1,16.1,18.9,12.5,18.9z M20.4,7c-0.3,0.3-0.7,0.5-1.2,0.5c-0.4,0-0.8-0.2-1.1-0.5c-0.3-0.3-0.5-0.7-0.5-1.2 c0-0.4,0.2-0.8,0.5-1.2c0.3-0.3,0.7-0.5,1.1-0.5c0.4,0,0.8,0.2,1.2,0.5c0.3,0.3,0.5,0.7,0.5,1.2C20.8,6.2,20.7,6.7,20.4,7z M12.5,8.3c-2.3,0-4.2,1.9-4.2,4.2c0,2.3,1.9,4.2,4.2,4.2c2.3,0,4.2-1.9,4.2-4.2C16.7,10.2,14.8,8.3,12.5,8.3z"></path> </g> </g> </svg> 