<?xml version="1.0" encoding="UTF-8"?> <!-- Generator: Adobe Illustrator 19.1.0, SVG Export Plug-In . SVG Version: 6.00 Build 0) --> <svg xmlns="http://www.w3.org/2000/svg" xmlns:xlink="http://www.w3.org/1999/xlink" id="Calque_1" x="0px" y="0px" width="25px" height="25px" viewBox="0 0 25 25" style="enable-background:new 0 0 25 25;" xml:space="preserve"> <style type="text/css"> .st0{fill:#5EA9DE;} </style> <g> <g> <path class="st0" d="M18.1,0H6.9C3.1,0,0,3.1,0,6.9v11.2C0,21.9,3.1,25,6.9,25h11.2c3.8,0,6.9-3.1,6.9-6.9V6.9 C25,3.1,21.9,0,18.1,0z M17.3,10l0,0.3c0,3.3-2.5,7.2-7,7.2c-1.4,0-2.7-0.4-3.8-1.1c0.2,0,0.4,0,0.6,0c1.2,0,2.2-0.4,3.1-1.1 c-1.1,0-2-0.8-2.3-1.8c0.2,0,0.3,0,0.5,0c0.2,0,0.4,0,0.6-0.1c-1.1-0.2-2-1.3-2-2.5v0c0.3,0.2,0.7,0.3,1.1,0.3 C7.4,10.9,7,10.1,7,9.2C7,8.8,7.1,8.3,7.3,8c1.2,1.5,3,2.5,5.1,2.6c0-0.2-0.1-0.4-0.1-0.6c0-1.4,1.1-2.5,2.5-2.5 c0.7,0,1.3,0.3,1.8,0.8c0.6-0.1,1.1-0.3,1.6-0.6c-0.2,0.6-0.6,1.1-1.1,1.4c0.5-0.1,1-0.2,1.4-0.4C18.2,9.2,17.8,9.6,17.3,10z"></path> </g> </g> </svg> 